<?xml version="1.0" encoding="UTF-8" standalone="no"?>
<!-- Created with Inkscape (http://www.inkscape.org/) -->

<svg
   width="210mm"
   height="297mm"
   viewBox="0 0 210 297"
   version="1.1"
   id="svg5"
   xml:space="preserve"
   inkscape:version="1.2 (dc2aedaf03, 2022-05-15)"
   sodipodi:docname="rcog.svg"
   inkscape:export-filename="rcog.png"
   inkscape:export-xdpi="300"
   inkscape:export-ydpi="300"
   xmlns:inkscape="http://www.inkscape.org/namespaces/inkscape"
   xmlns:sodipodi="http://sodipodi.sourceforge.net/DTD/sodipodi-0.dtd"
   xmlns="http://www.w3.org/2000/svg"
   xmlns:svg="http://www.w3.org/2000/svg"><sodipodi:namedview
     id="namedview7"
     pagecolor="#ffffff"
     bordercolor="#666666"
     borderopacity="1.0"
     inkscape:showpageshadow="2"
     inkscape:pageopacity="0.0"
     inkscape:pagecheckerboard="0"
     inkscape:deskcolor="#d1d1d1"
     inkscape:document-units="mm"
     showgrid="false"
     inkscape:zoom="5.7299663"
     inkscape:cx="280.54266"
     inkscape:cy="137.08632"
     inkscape:window-width="1920"
     inkscape:window-height="991"
     inkscape:window-x="-9"
     inkscape:window-y="-9"
     inkscape:window-maximized="1"
     inkscape:current-layer="layer1" /><defs
     id="defs2"><marker
       style="overflow:visible"
       id="Arrow4"
       refX="0"
       refY="0"
       orient="auto-start-reverse"
       inkscape:stockid="Arrow4"
       markerWidth="5"
       markerHeight="6"
       viewBox="0 0 5 6"
       inkscape:isstock="true"
       inkscape:collect="always"
       preserveAspectRatio="xMidYMid"><path
         style="fill:context-stroke;fill-rule:evenodd;stroke:none"
         d="m 1,0 -3,3 h -2 l 3,-3 -3,-3 h 2 z"
         id="path1741" /></marker><marker
       style="overflow:visible"
       id="Arrow3"
       refX="0"
       refY="0"
       orient="auto-start-reverse"
       inkscape:stockid="Arrow3"
       markerWidth="4.2071066"
       markerHeight="7"
       viewBox="0 0 4.2071068 7"
       inkscape:isstock="true"
       inkscape:collect="always"
       preserveAspectRatio="xMidYMid"><path
         style="fill:none;stroke:context-stroke;stroke-width:1;stroke-linecap:round"
         d="M 3,-3 0,0 3,3"
         id="arrow3"
         transform="rotate(180,0.125,0)"
         sodipodi:nodetypes="ccc" /></marker><marker
       style="overflow:visible"
       id="Arrow3-8"
       refX="0"
       refY="0"
       orient="auto-start-reverse"
       inkscape:stockid="Arrow3"
       markerWidth="4.2071066"
       markerHeight="7"
       viewBox="0 0 4.2071068 7"
       inkscape:isstock="true"
       inkscape:collect="always"
       preserveAspectRatio="xMidYMid"><path
         style="fill:none;stroke:context-stroke;stroke-width:1;stroke-linecap:round"
         d="M 3,-3 0,0 3,3"
         id="arrow3-1"
         transform="rotate(180,0.125,0)"
         sodipodi:nodetypes="ccc" /></marker></defs><g
     inkscape:label="Layer 1"
     inkscape:groupmode="layer"
     id="layer1"><rect
       style="fill:#ffffff;stroke:none;stroke-width:0.01;stroke-linejoin:bevel;stroke-dasharray:none;stroke-dashoffset:0;stroke-opacity:1;fill-opacity:1"
       id="rect6721"
       width="34.539177"
       height="30.337221"
       x="68.0625"
       y="21.333023" /><circle
       style="fill:none;stroke:#000000;stroke-width:0.3;stroke-linejoin:bevel;stroke-opacity:1"
       id="path61"
       cx="85.886192"
       cy="36.570892"
       r="14.406716" /><ellipse
       style="fill:none;stroke:#f7163d;stroke-width:0.13536;stroke-linejoin:bevel;stroke-opacity:1"
       id="path61-0"
       cx="85.724571"
       cy="36.039879"
       rx="6.5699596"
       ry="6.4314332" /><path
       style="fill:none;stroke:#000000;stroke-width:0.252051px;stroke-linecap:butt;stroke-linejoin:miter;stroke-opacity:1"
       d="M 85.701493,22.118004 V 51.116138"
       id="path1339" /><path
       style="fill:none;stroke:#000000;stroke-width:0.252252px;stroke-linecap:butt;stroke-linejoin:miter;stroke-opacity:1"
       d="M 100.38526,36.570896 H 71.340951"
       id="path1339-3" /><path
       style="fill:none;stroke:#8c1919;stroke-width:0.182286px;stroke-linecap:butt;stroke-linejoin:miter;stroke-dasharray:0.729145, 0.182286;stroke-dashoffset:0;stroke-opacity:1;marker-end:url(#Arrow3)"
       d="M 85.756339,36.730704 77.994968,24.813251"
       id="path1339-4" /><path
       style="fill:none;stroke:#8c1919;stroke-width:0.167009px;stroke-linecap:butt;stroke-linejoin:miter;stroke-dasharray:0.668036, 0.167009;stroke-dashoffset:0;stroke-opacity:1;marker-end:url(#Arrow3-8)"
       d="m 85.594195,36.681411 10.478874,-9.99727"
       id="path1339-4-9" /><path
       style="fill:none;stroke:#1eb63a;stroke-width:0.264583px;stroke-linecap:butt;stroke-linejoin:miter;stroke-opacity:1;marker-end:url(#Arrow4)"
       d="m 81.915112,30.798974 c 2.931069,-1.91818 6.155806,-1.754097 8.77332,1.062038"
       id="path1812"
       sodipodi:nodetypes="cc" /><path
       style="fill:#000000;stroke-width:0.0165039;stroke:none"
       d="m 84.622763,35.842798 -0.16632,-0.265838 -0.362066,0.226511 c -0.28891,0.180752 -0.367656,0.2247 -0.389871,0.217325 -0.01526,-0.005 -0.07129,-0.05545 -0.124417,-0.111974 -0.05315,-0.05653 -0.102489,-0.103494 -0.109656,-0.104344 -0.0071,-8.27e-4 -0.07494,-0.0636 -0.150594,-0.139408 -0.276547,-0.277082 -0.354933,-0.352858 -0.379443,-0.366795 -0.01372,-0.0077 -0.07683,-0.07349 -0.140181,-0.145919 -0.06333,-0.07243 -0.128937,-0.140586 -0.145784,-0.151463 -0.05137,-0.03317 -0.287122,-0.303746 -0.521469,-0.598474 -0.122233,-0.153724 -0.244519,-0.301857 -0.271738,-0.329166 -0.02726,-0.0273 -0.199572,-0.261142 -0.382997,-0.519628 -0.183418,-0.258489 -0.356289,-0.499524 -0.384124,-0.535646 -0.216027,-0.280254 -0.943751,-1.577154 -0.998564,-1.779533 -0.0112,-0.04119 -0.04525,-0.138133 -0.07575,-0.215422 -0.03051,-0.07728 -0.05802,-0.156429 -0.06115,-0.175883 -0.0031,-0.01944 -0.03016,-0.09892 -0.06006,-0.176559 -0.02991,-0.07765 -0.05338,-0.151174 -0.05214,-0.163403 0.0012,-0.01217 -0.01449,-0.07094 -0.03499,-0.130483 -0.02048,-0.05956 -0.0381,-0.122368 -0.03916,-0.139621 -9.97e-4,-0.01719 -0.01314,-0.07249 -0.02697,-0.122755 -0.06296,-0.229973 -0.07324,-0.299965 -0.131816,-0.898045 -0.05017,-0.512188 -0.05125,-0.526754 -0.04214,-0.566369 0.0039,-0.01681 0.0037,-0.03564 -6.27e-4,-0.04231 -0.01121,-0.01777 -0.01178,-0.20056 -0.0011,-0.330142 0.0052,-0.06207 0.0066,-0.124841 0.0037,-0.139524 -0.0031,-0.01468 0.0048,-0.109425 0.01758,-0.210542 0.01275,-0.101137 0.0211,-0.187436 0.01835,-0.191802 -0.0027,-0.0044 0.0041,-0.03564 0.01488,-0.06953 0.01082,-0.03389 0.01681,-0.06658 0.01294,-0.07268 -0.0039,-0.0062 0.0018,-0.05038 0.01217,-0.09841 0.01043,-0.04803 0.02185,-0.115298 0.02519,-0.149455 l 0.006,-0.06215 0.105812,0.03118 c 0.399599,0.117596 0.873747,0.296014 0.900574,0.338903 0.0039,0.0062 0.04113,0.02413 0.08292,0.04005 0.04179,0.01584 0.08108,0.03671 0.08728,0.04619 0.0062,0.0095 0.01777,0.01314 0.02577,0.0081 0.0079,-0.0048 0.02523,-4.95e-4 0.03839,0.01005 0.01314,0.01043 0.04932,0.02948 0.08035,0.04221 0.05649,0.02316 0.415628,0.242715 0.427161,0.261151 0.0033,0.0054 0.02073,0.01449 0.03862,0.02025 0.01797,0.0058 0.05465,0.0272 0.08174,0.04774 0.02712,0.0205 0.06283,0.042 0.0794,0.04766 0.01662,0.0056 0.04459,0.0232 0.06227,0.03891 0.01758,0.01584 0.07517,0.05699 0.127817,0.09173 0.05264,0.03474 0.100557,0.0709 0.106488,0.08037 0.0058,0.0095 0.02061,0.01951 0.03277,0.02226 0.02361,0.0054 0.168406,0.120012 0.3151,0.249329 0.04975,0.04384 0.09892,0.08315 0.109308,0.08736 0.01043,0.0043 0.054,0.03823 0.09695,0.07562 0.04293,0.03738 0.0891,0.07423 0.102566,0.08184 0.03779,0.02133 0.232489,0.223188 0.409923,0.424913 0.0881,0.100151 0.18392,0.206635 0.21297,0.236648 0.348308,0.359789 1.233087,1.803298 1.673254,2.729903 0.144316,0.303813 0.187533,0.40093 0.193058,0.434051 0.0033,0.01938 0.04546,0.128763 0.09383,0.243046 0.224286,0.53003 0.269961,0.641002 0.274045,0.665661 0.0025,0.01449 0.02701,0.08674 0.05469,0.160466 0.02766,0.0737 0.04959,0.143214 0.0487,0.154477 -8.31e-4,0.01121 0.02115,0.0807 0.04899,0.154285 0.02782,0.07359 0.05405,0.157935 0.05829,0.187416 0.0042,0.02946 0.0268,0.107107 0.05015,0.172502 0.02338,0.0654 0.04144,0.128551 0.0402,0.140336 -0.0012,0.01198 0.0081,0.04756 0.02096,0.07956 l 0.02324,0.05813 -0.364364,0.23311 -0.364365,0.233113 0.160312,0.264727 0.160312,0.264729 -0.293511,0.18363 -0.293514,0.18363 z m 0.536912,-0.355367 -0.157549,-0.251843 -0.244853,0.153183 -0.244849,0.153183 0.157549,0.251848 0.157549,0.251845 0.244851,-0.153183 0.244851,-0.153183 z m -0.843274,-0.134328 -0.113791,-0.181891 -0.320691,0.200625 -0.320689,0.200628 -0.06758,-0.08914 C 83.4565,35.434315 83.40847,35.378924 83.386911,35.3603 83.365371,35.34175 83.264523,35.21639 83.162849,35.081922 83.061191,34.94744 82.964698,34.828217 82.948424,34.816983 82.932194,34.805773 82.824954,34.6757 82.71018,34.52801 c -0.114757,-0.147696 -0.225265,-0.288818 -0.245549,-0.313601 -0.02023,-0.02481 -0.185658,-0.254223 -0.367472,-0.509875 -0.181834,-0.255645 -0.348333,-0.479993 -0.370048,-0.49853 -0.02164,-0.01855 -0.186586,-0.252659 -0.366428,-0.520257 -0.254671,-0.378972 -0.37442,-0.570925 -0.541636,-0.868137 -0.118022,-0.209895 -0.213794,-0.390899 -0.212733,-0.402269 9.81e-4,-0.0114 -0.02521,-0.07378 -0.05836,-0.138693 -0.0596,-0.116727 -0.115124,-0.250995 -0.124725,-0.301586 -0.0027,-0.0143 -0.0066,-0.03377 -0.0087,-0.0432 -0.0021,-0.0095 -0.03665,-0.09729 -0.07683,-0.195282 -0.04016,-0.09801 -0.07513,-0.194402 -0.07768,-0.214209 -0.0025,-0.01984 -0.02154,-0.08678 -0.04217,-0.148836 -0.02063,-0.06203 -0.04119,-0.1368 -0.04569,-0.166088 -0.0044,-0.02931 -0.01352,-0.07187 -0.01996,-0.09459 -0.0066,-0.02272 -0.01526,-0.06542 -0.01947,-0.09488 -0.0042,-0.02946 -0.01294,-0.08315 -0.01938,-0.119278 l -0.01159,-0.0657 0.847914,-0.53046 0.847913,-0.53046 0.04743,0.0336 c 0.02602,0.01855 0.06775,0.05593 0.09256,0.08325 0.02477,0.02734 0.05417,0.0529 0.06524,0.05689 0.01121,0.0041 0.05842,0.04443 0.105232,0.08991 0.04681,0.04546 0.09412,0.08601 0.105155,0.09009 0.01121,0.0041 0.06008,0.04787 0.108981,0.09729 0.0489,0.04942 0.09766,0.09314 0.108342,0.09716 0.01082,0.0041 0.06737,0.06055 0.125924,0.125634 0.05858,0.06507 0.12403,0.133632 0.145455,0.152352 0.04384,0.03831 0.317924,0.352794 0.395277,0.453542 0.102856,0.13398 0.583326,0.890727 0.570623,0.898673 -0.0073,0.0044 0.04515,0.10274 0.11864,0.222655 0.271435,0.442834 0.742308,1.294041 0.754066,1.363063 0.0033,0.01938 0.0915,0.200711 0.195975,0.403023 0.104479,0.202311 0.219263,0.428361 0.255052,0.502335 0.0358,0.07395 0.100866,0.208473 0.144605,0.298885 0.04372,0.09041 0.07892,0.173545 0.07813,0.184731 -8.31e-4,0.01121 0.03941,0.103243 0.08928,0.204567 0.04984,0.101349 0.09662,0.20349 0.103841,0.227042 l 0.01314,0.04279 -0.309441,0.203322 -0.30944,0.203324 0.107821,0.18108 0.107822,0.18108 0.34984,-0.224027 0.34984,-0.224025 -0.02152,-0.07415 c -0.01179,-0.04078 -0.04515,-0.155714 -0.07405,-0.255417 -0.0289,-0.09971 -0.07579,-0.245574 -0.104228,-0.324143 -0.02844,-0.07857 -0.05214,-0.155733 -0.05266,-0.171459 -4.85e-4,-0.01565 -0.02716,-0.09542 -0.0592,-0.17712 -0.03201,-0.08168 -0.06091,-0.164349 -0.06424,-0.183688 -0.0033,-0.01938 -0.04712,-0.123354 -0.09731,-0.231138 -0.05019,-0.107783 -0.09345,-0.212136 -0.09607,-0.2319 -0.0027,-0.01978 -0.042,-0.117789 -0.08746,-0.217835 -0.04544,-0.100054 -0.08491,-0.198007 -0.08771,-0.217674 -0.0058,-0.04161 -0.101368,-0.24245 -0.213973,-0.450163 -0.04337,-0.07994 -0.0812,-0.161394 -0.08412,-0.180984 -0.01005,-0.0671 -0.297421,-0.573411 -0.705422,-1.242624 -0.341108,-0.559391 -0.435376,-0.704651 -0.574296,-0.883886 -0.0914,-0.117964 -0.177911,-0.221531 -0.192285,-0.230122 -0.0143,-0.0087 -0.09237,-0.09683 -0.173352,-0.196053 -0.08099,-0.09922 -0.155772,-0.183842 -0.166204,-0.188035 -0.01043,-0.0042 -0.07264,-0.0682 -0.138307,-0.142209 -0.06567,-0.07403 -0.123837,-0.131816 -0.129305,-0.128377 -0.0054,0.0035 -0.03091,-0.01797 -0.05653,-0.04737 -0.02566,-0.02944 -0.07405,-0.07144 -0.107608,-0.09329 -0.06431,-0.04183 -0.214144,-0.163634 -0.365383,-0.297038 -0.04971,-0.04386 -0.106816,-0.08673 -0.126889,-0.09528 -0.02011,-0.0085 -0.04146,-0.02341 -0.04749,-0.03308 -0.006,-0.0097 -0.05566,-0.04697 -0.110275,-0.08292 -0.05462,-0.03597 -0.103107,-0.07144 -0.107744,-0.07886 -0.0091,-0.0143 -0.335491,-0.221048 -0.355502,-0.225095 -0.0064,-0.0012 -0.04171,-0.02311 -0.07836,-0.04832 -0.03663,-0.02527 -0.07289,-0.04641 -0.0806,-0.04697 -0.0077,-5.64e-4 -0.04287,-0.02237 -0.07815,-0.04845 -0.03526,-0.02608 -0.0756,-0.04725 -0.0896,-0.04706 -0.0141,2.67e-4 -0.02966,-0.0064 -0.03477,-0.01449 -0.0052,-0.0081 -0.06783,-0.03843 -0.139408,-0.06725 -0.07158,-0.02884 -0.132782,-0.05668 -0.136047,-0.06188 -0.0031,-0.0052 -0.0675,-0.03663 -0.14275,-0.06984 -0.220005,-0.0971 -0.250077,-0.108999 -0.275915,-0.10925 -0.01352,-1.09e-4 -0.02863,-0.007 -0.03371,-0.01507 -0.005,-0.0079 -0.07536,-0.03595 -0.156235,-0.0619 -0.144586,-0.04642 -0.222876,-0.07276 -0.312411,-0.105232 l -0.04527,-0.01642 -0.01352,0.10189 c -0.0073,0.05605 -0.01719,0.107067 -0.0215,0.113385 -0.0044,0.0064 -0.0042,0.01739 2.49e-4,0.02467 0.0044,0.0073 -0.0042,0.09828 -0.01949,0.202232 -0.01526,0.103977 -0.0232,0.196302 -0.01758,0.205193 0.0056,0.0089 0.0037,0.02019 -0.0042,0.02519 -0.0079,0.0048 -0.01159,0.02257 -0.0081,0.0391 0.0035,0.01642 -4.42e-4,0.113192 -0.0087,0.214748 -0.0083,0.101562 -0.01043,0.201528 -0.005,0.222139 0.0054,0.02063 0.0044,0.04109 -0.0027,0.04552 -0.0071,0.0044 -0.0097,0.03458 -0.006,0.067 0.0037,0.03244 0.0079,0.102045 0.0095,0.154729 0.0041,0.151386 0.07359,0.826065 0.09662,0.936281 0.01159,0.05493 0.01986,0.109348 0.01874,0.120939 -0.0012,0.01159 0.02272,0.119258 0.0532,0.239268 0.03049,0.120012 0.05788,0.234183 0.0609,0.253719 0.0031,0.01949 0.02083,0.08284 0.0396,0.140702 0.01874,0.05786 0.03516,0.119664 0.03642,0.13738 0.0012,0.01777 0.02917,0.09878 0.06203,0.180191 0.03284,0.08141 0.0546,0.151251 0.0483,0.155173 -0.0062,0.0039 -0.0031,0.02071 0.0073,0.03725 0.02821,0.04509 0.117133,0.279346 0.119239,0.314091 0.001,0.01662 0.07115,0.165509 0.155907,0.330751 0.08473,0.165238 0.150961,0.307361 0.147155,0.315832 -0.0112,0.02488 0.749485,1.245151 0.78955,1.266534 0.01978,0.01063 0.15241,0.18676 0.323759,0.430151 0.159616,0.226714 0.299785,0.414532 0.311506,0.417374 0.01159,0.0029 0.03661,0.02962 0.05529,0.05948 0.05263,0.08412 0.331199,0.434731 0.363858,0.457955 0.01603,0.01159 0.09105,0.09586 0.166726,0.187707 0.07567,0.09186 0.144296,0.167189 0.152507,0.167401 0.0083,1.74e-4 0.07121,0.06594 0.140007,0.146016 0.06882,0.08008 0.133786,0.148952 0.144412,0.153009 0.01082,0.0041 0.06611,0.05693 0.123334,0.117519 0.05722,0.06057 0.112593,0.11354 0.123064,0.117674 0.01043,0.0042 0.06287,0.0546 0.116438,0.112091 0.05359,0.05748 0.112573,0.11524 0.131062,0.128338 0.01855,0.01314 0.08242,0.07386 0.142016,0.135023 0.05962,0.06118 0.12631,0.124088 0.148199,0.139833 l 0.0398,0.02865 0.348089,-0.217768 0.34809,-0.217767 z m 0.545668,-0.341374 -0.113791,-0.181891 -0.244851,0.153183 -0.244851,0.153182 0.113791,0.181892 0.113791,0.181891 0.244849,-0.153183 0.244851,-0.153183 z m -0.764498,-0.0083 -0.07876,-0.125924 0.29382,-0.183823 0.293821,-0.183823 0.07877,0.125923 0.07878,0.125923 0.299185,-0.187165 c 0.298437,-0.186702 0.299154,-0.187262 0.287922,-0.223938 -0.0062,-0.02023 -0.02378,-0.05688 -0.03903,-0.08149 -0.01526,-0.02463 -0.02376,-0.05286 -0.01893,-0.06279 0.0048,-0.0099 -0.006,-0.04088 -0.02409,-0.06881 -0.01816,-0.02794 -0.07795,-0.149686 -0.132898,-0.27056 -0.05494,-0.120861 -0.145513,-0.30951 -0.201238,-0.419194 -0.05577,-0.109656 -0.110757,-0.219805 -0.122272,-0.244724 -0.01965,-0.0425 -0.365092,-0.734139 -0.455601,-0.912225 -0.125093,-0.246134 -0.292143,-0.544812 -0.5646,-1.00951 -0.421267,-0.718531 -0.584295,-0.976786 -0.644237,-1.020581 -0.0266,-0.01949 -0.06144,-0.04472 -0.0773,-0.05622 -0.01584,-0.01159 -0.03191,-0.02334 -0.03566,-0.02635 -0.0037,-0.0029 -0.01967,-0.01507 -0.03549,-0.02647 -0.100518,-0.07351 -0.455636,-0.343259 -0.590261,-0.448362 -0.04567,-0.03566 -0.09795,-0.07305 -0.116148,-0.08307 -0.01816,-0.01005 -0.05842,-0.04181 -0.08937,-0.07063 -0.03101,-0.0288 -0.06294,-0.05261 -0.07108,-0.05286 -0.0081,-2.67e-4 -0.03282,-0.01546 -0.05485,-0.03383 l -0.04001,-0.03338 -0.72346,0.447588 -0.723458,0.447584 -8.94e-4,0.04521 c -5.68e-4,0.02484 0.01101,0.09001 0.0255,0.144818 0.01449,0.05479 0.02425,0.105406 0.02154,0.112457 -0.0027,0.007 0.0023,0.03887 0.0114,0.07073 0.02115,0.07481 0.103049,0.472775 0.1118,0.543289 0.0083,0.0675 0.0643,0.351634 0.08016,0.407334 0.0066,0.02272 0.01121,0.06352 0.01063,0.09069 -9.85e-4,0.04407 0.03725,0.110062 0.35414,0.611016 0.195446,0.308871 0.365166,0.566251 0.377253,0.571892 0.01198,0.0054 0.169913,0.215561 0.350703,0.466496 0.475785,0.660305 0.908051,1.237559 0.948045,1.266045 0.01198,0.0085 0.137825,0.161993 0.279594,0.340975 0.243295,0.307142 0.293748,0.369418 0.379421,0.468329 l 0.03555,0.04103 0.300181,-0.187803 0.300184,-0.187803 z m 0.558794,-0.320392 -0.06567,-0.104942 -0.244851,0.153182 -0.244851,0.153183 0.06567,0.104943 0.06567,0.104942 0.244851,-0.153182 0.244851,-0.153183 z m -3.910951,-3.217524 c 6.4e-5,-0.02187 -0.0079,-0.0698 -0.01758,-0.106585 -0.0097,-0.03674 -0.01874,-0.08371 -0.01994,-0.104324 -0.0012,-0.02063 -0.01217,-0.08386 -0.02425,-0.140568 -0.04424,-0.208042 -0.05264,-0.254489 -0.05877,-0.324423 -0.0033,-0.03926 -0.01043,-0.07799 -0.01546,-0.08609 -0.005,-0.0079 -0.01391,-0.04884 -0.01986,-0.09055 -0.02407,-0.171343 -0.05531,-0.302156 -0.07382,-0.308896 -0.01082,-0.0041 -0.07792,-0.07533 -0.149126,-0.15865 -0.205185,-0.240093 -0.21257,-0.237754 -0.141939,0.04492 0.03286,0.131449 0.06963,0.263471 0.08172,0.293375 0.01217,0.02993 0.02452,0.07032 0.02757,0.08982 0.0031,0.01949 0.03771,0.11041 0.07701,0.201995 0.0393,0.09161 0.07587,0.193423 0.0813,0.226287 0.01082,0.06623 0.168175,0.407754 0.232491,0.504897 0.0226,0.03412 0.03651,0.04774 0.03089,0.03027 -0.0056,-0.01739 -0.01024,-0.04963 -0.01024,-0.07148 z m 2.165414,-1.550188 c -0.05981,-0.06965 -0.119703,-0.137322 -0.133072,-0.150362 -0.01333,-0.01314 -0.08159,-0.08864 -0.151502,-0.16802 -0.06995,-0.07938 -0.156313,-0.168001 -0.191918,-0.196961 -0.03562,-0.02896 -0.07009,-0.06116 -0.0766,-0.07158 -0.01256,-0.01999 -0.179052,-0.173314 -0.322034,-0.296453 -0.04681,-0.0403 -0.108285,-0.09602 -0.136626,-0.123817 -0.0283,-0.0278 -0.05616,-0.0476 -0.06182,-0.04407 -0.0056,0.0035 0.03682,0.118795 0.09439,0.256107 l 0.104692,0.249675 0.09219,0.07005 c 0.230291,0.174994 0.323728,0.243771 0.39669,0.292025 0.04316,0.02853 0.08385,0.06047 0.09041,0.07094 0.0066,0.01043 0.02117,0.02158 0.03253,0.02465 0.0114,0.0031 0.0442,0.02587 0.07305,0.05065 0.02881,0.02481 0.08817,0.06895 0.131874,0.09814 0.0437,0.02919 0.08311,0.05892 0.08759,0.06609 0.0044,0.0071 0.03269,0.02772 0.06267,0.04573 0.05438,0.03263 0.05448,0.03261 0.03537,-0.0068 -0.01063,-0.02166 -0.06814,-0.09642 -0.127913,-0.166089 z m -0.928574,-0.5434 c -0.0066,-0.01988 -0.03648,-0.09105 -0.06603,-0.158226 -0.02962,-0.06715 -0.05628,-0.138055 -0.05933,-0.157568 -0.0031,-0.01949 -0.02249,-0.07523 -0.04314,-0.123875 l -0.03758,-0.08843 -0.808944,0.506081 c -0.641052,0.40105 -0.805432,0.5089 -0.791947,0.51979 0.01758,0.0141 0.246443,0.27928 0.267379,0.309679 0.0066,0.0095 0.017,0.01372 0.02336,0.0099 0.0062,-0.0039 0.02061,0.007 0.03155,0.02405 0.01101,0.01719 0.03259,0.04314 0.04797,0.05759 l 0.02817,0.02618 0.710418,-0.444443 0.710415,-0.444442 z"
       id="path3455-5"
       inkscape:transform-center-x="-0.061072318"
       inkscape:transform-center-y="-0.2518542" /><path
       style="fill:#000000;stroke-width:0.0165039"
       d="m 86.310753,35.384612 0.229183,-0.214026 -0.291485,-0.312146 c -0.232599,-0.249075 -0.290776,-0.317979 -0.287779,-0.341194 0.002,-0.01593 0.04081,-0.08056 0.08615,-0.143511 0.04534,-0.06297 0.08201,-0.120367 0.08148,-0.127564 -5.07e-4,-0.0072 0.04812,-0.0857 0.108079,-0.174446 0.219171,-0.324371 0.278583,-0.415785 0.287583,-0.442506 0.005,-0.01494 0.05747,-0.08945 0.116463,-0.165467 0.05901,-0.076 0.113376,-0.153412 0.120835,-0.172025 0.02275,-0.05676 0.243325,-0.339845 0.487877,-0.626163 0.127552,-0.149339 0.249606,-0.297663 0.271214,-0.329597 0.0216,-0.03197 0.218224,-0.245768 0.436924,-0.475181 0.218705,-0.229406 0.422291,-0.445126 0.452433,-0.479346 0.233842,-0.265571 1.367901,-1.227569 1.556088,-1.320022 0.0383,-0.01886 0.12695,-0.0708 0.196992,-0.115495 0.07003,-0.04471 0.14247,-0.08682 0.160967,-0.09361 0.0185,-0.0068 0.09134,-0.04849 0.161841,-0.09267 0.07051,-0.04418 0.138198,-0.08127 0.150439,-0.08239 0.01218,-0.0012 0.06686,-0.02777 0.1214,-0.05927 0.05455,-0.03148 0.11284,-0.06077 0.129572,-0.0651 0.01668,-0.0042 0.06864,-0.02674 0.115346,-0.04992 0.213717,-0.105718 0.280457,-0.129175 0.856344,-0.300887 0.493182,-0.147059 0.507273,-0.150901 0.547899,-0.149524 0.01725,6.18e-4 0.03568,-0.0032 0.04141,-0.0087 0.01531,-0.0144 0.19462,-0.04986 0.323857,-0.06412 0.06192,-0.0067 0.123803,-0.01736 0.137662,-0.02301 0.01382,-0.0059 0.108327,-0.01618 0.210024,-0.02295 0.101711,-0.0068 0.188016,-0.01508 0.191777,-0.01862 0.0038,-0.0035 0.03576,-0.0027 0.0711,0.0013 0.03533,0.0041 0.06856,0.0038 0.07381,-0.0012 0.0053,-0.005 0.04979,-0.0079 0.09893,-0.0069 0.04914,0.0011 0.117349,-5.7e-4 0.151515,-0.0038 l 0.06215,-0.006 -0.01044,0.109816 c -0.03913,0.414701 -0.12371,0.914196 -0.16068,0.94872 -0.0053,0.005 -0.01583,0.04498 -0.02347,0.08904 -0.0076,0.04404 -0.02055,0.08659 -0.02868,0.0945 -0.0082,0.0078 -0.0095,0.01995 -0.003,0.02684 0.0063,0.0068 0.0053,0.02467 -0.0025,0.03961 -0.0078,0.01489 -0.01952,0.05405 -0.02609,0.08694 -0.01191,0.05988 -0.158876,0.454331 -0.17477,0.469172 -0.0047,0.0042 -0.01025,0.02312 -0.01251,0.04178 -0.0023,0.01875 -0.01627,0.05883 -0.03125,0.08936 -0.01494,0.03054 -0.02923,0.0697 -0.03162,0.08704 -0.0023,0.01739 -0.01426,0.0482 -0.02631,0.06855 -0.01219,0.02028 -0.04158,0.08467 -0.06563,0.142983 -0.02405,0.05831 -0.05039,0.112245 -0.05855,0.119876 -0.0083,0.0075 -0.01522,0.02396 -0.0156,0.03642 -8.1e-4,0.02421 -0.08564,0.188225 -0.184566,0.356914 -0.03353,0.05721 -0.06273,0.11298 -0.06488,0.12398 -0.0022,0.01106 -0.02722,0.06031 -0.05571,0.109607 -0.02849,0.04928 -0.05585,0.101636 -0.06074,0.116308 -0.01372,0.04116 -0.174682,0.270832 -0.33881,0.483524 -0.08149,0.105604 -0.167709,0.219996 -0.191623,0.254242 -0.286651,0.410607 -1.534629,1.554767 -2.360123,2.163786 -0.270662,0.199679 -0.357738,0.260647 -0.389194,0.272395 -0.01839,0.0069 -0.117713,0.06922 -0.220655,0.138518 -0.477444,0.321377 -0.577651,0.387404 -0.601076,0.396121 -0.01375,0.0052 -0.07999,0.04308 -0.147068,0.08432 -0.06706,0.04122 -0.131109,0.07603 -0.142334,0.0773 -0.01115,0.0013 -0.07518,0.03617 -0.14209,0.07755 -0.06692,0.04136 -0.144706,0.08322 -0.172835,0.09301 -0.02812,0.0098 -0.100022,0.04676 -0.159751,0.08217 -0.05973,0.03544 -0.118271,0.06523 -0.130076,0.06626 -0.01198,0.0011 -0.04514,0.01704 -0.07409,0.03577 l -0.05262,0.03391 -0.298402,-0.313141 -0.298405,-0.313143 -0.22924,0.207917 -0.229243,0.207916 -0.236301,-0.253041 -0.236303,-0.253045 z m 0.45136,0.459166 0.217121,-0.202743 -0.197123,-0.211094 -0.197122,-0.211089 -0.217127,0.202744 -0.217122,0.202744 0.197122,0.211092 0.197123,0.211091 z m -0.02919,-0.853407 0.156813,-0.146432 -0.258175,-0.276476 -0.258177,-0.276474 0.07459,-0.08336 c 0.04101,-0.04583 0.08621,-0.10355 0.100373,-0.128269 0.0141,-0.02469 0.11789,-0.147618 0.230466,-0.273099 0.112594,-0.12547 0.211195,-0.242955 0.219114,-0.261074 0.0079,-0.01807 0.115104,-0.148179 0.238158,-0.289044 0.123063,-0.140851 0.240484,-0.276275 0.260938,-0.300918 0.02049,-0.0246 0.214089,-0.23079 0.430316,-0.458079 0.216215,-0.227309 0.404638,-0.433586 0.418687,-0.458442 0.01407,-0.02479 0.212377,-0.231402 0.440706,-0.459037 0.323363,-0.322356 0.488916,-0.476558 0.748725,-0.697455 0.183493,-0.155933 0.342876,-0.284508 0.35424,-0.285639 0.01138,-0.0013 0.0676,-0.03884 0.124996,-0.08377 0.103195,-0.08079 0.22439,-0.160937 0.272217,-0.180023 0.01352,-0.0054 0.03189,-0.01293 0.04074,-0.01679 0.009,-0.0039 0.0885,-0.05456 0.177016,-0.112708 0.08854,-0.05814 0.176476,-0.110872 0.195432,-0.117157 0.01899,-0.0062 0.08107,-0.03772 0.138044,-0.06982 0.05695,-0.0321 0.126417,-0.06656 0.154306,-0.07657 0.02793,-0.0099 0.06796,-0.027 0.08904,-0.03766 0.02104,-0.01082 0.0613,-0.02747 0.08942,-0.03723 0.02812,-0.0098 0.07915,-0.02858 0.113382,-0.0418 l 0.06228,-0.02393 0.682623,0.731008 0.682622,0.731007 -0.02393,0.05298 c -0.01324,0.02908 -0.04197,0.07719 -0.06404,0.106755 -0.02211,0.02954 -0.04158,0.06327 -0.04338,0.0749 -0.0019,0.01178 -0.03245,0.06583 -0.06815,0.120466 -0.03568,0.05463 -0.06645,0.108813 -0.06835,0.120424 -0.0019,0.01178 -0.03551,0.06812 -0.07469,0.125554 -0.03917,0.05744 -0.07278,0.11365 -0.07469,0.124903 -0.002,0.01141 -0.04657,0.0777 -0.09927,0.147598 -0.05269,0.06993 -0.107483,0.147268 -0.121771,0.171873 -0.02924,0.05035 -0.285588,0.379445 -0.369709,0.474615 -0.111872,0.126549 -0.762937,0.742691 -0.773163,0.731739 -0.0057,-0.0063 -0.09223,0.06394 -0.195901,0.158978 -0.382849,0.351006 -1.128467,0.975767 -1.193974,1.00049 -0.01839,0.0069 -0.179544,0.128146 -0.358181,0.269333 -0.178635,0.141191 -0.378605,0.297031 -0.444383,0.346288 -0.06575,0.04927 -0.185374,0.138822 -0.26577,0.199021 -0.0804,0.06018 -0.155279,0.11061 -0.166411,0.11197 -0.01115,0.0013 -0.09382,0.0584 -0.183752,0.126703 -0.08996,0.06827 -0.181293,0.133702 -0.203033,0.145288 l -0.03949,0.02107 -0.258674,-0.264918 -0.258675,-0.264917 -0.157157,0.140417 -0.157157,0.140419 0.286713,0.30062 0.28671,0.300619 0.06867,-0.03529 c 0.03778,-0.01936 0.144226,-0.07406 0.236576,-0.121465 0.09236,-0.0474 0.22658,-0.121291 0.298272,-0.16421 0.0717,-0.04292 0.14291,-0.08092 0.158248,-0.08444 0.01527,-0.0034 0.08848,-0.04489 0.162555,-0.09193 0.07406,-0.04702 0.149693,-0.09117 0.168039,-0.09814 0.01839,-0.0069 0.112085,-0.06981 0.208302,-0.13966 0.09621,-0.06985 0.190385,-0.132241 0.209286,-0.138587 0.0189,-0.0065 0.1076,-0.06373 0.197123,-0.12745 0.08953,-0.06372 0.178147,-0.121161 0.196919,-0.127665 0.03974,-0.01364 0.218629,-0.145803 0.401015,-0.296003 0.07019,-0.05784 0.142918,-0.110526 0.161589,-0.117134 0.06395,-0.02267 0.50606,-0.40145 1.085042,-0.929741 0.483954,-0.441657 0.608539,-0.561929 0.757947,-0.732522 0.09834,-0.112245 0.183478,-0.216942 0.189165,-0.232692 0.0058,-0.0157 0.07741,-0.109161 0.159341,-0.207602 0.08193,-0.09845 0.150711,-0.188013 0.152835,-0.199054 0.0021,-0.01104 0.05308,-0.08433 0.11318,-0.162918 0.06012,-0.07859 0.105743,-0.146731 0.101318,-0.151442 -0.0044,-0.0046 0.01174,-0.03377 0.03571,-0.06453 0.024,-0.03081 0.05598,-0.08632 0.07102,-0.123443 0.02878,-0.07112 0.119726,-0.241452 0.221794,-0.415383 0.03356,-0.05717 0.06473,-0.121413 0.0693,-0.142749 0.0045,-0.02136 0.01506,-0.04517 0.0234,-0.05293 0.0084,-0.0077 0.03548,-0.06361 0.06034,-0.12408 0.02488,-0.06048 0.05044,-0.114852 0.05684,-0.12082 0.0123,-0.01166 0.152911,-0.37153 0.153063,-0.391946 -4.4e-5,-0.0065 0.01472,-0.04536 0.03247,-0.08614 0.01781,-0.04078 0.03164,-0.08041 0.03071,-0.08809 -9.65e-4,-0.0077 0.01379,-0.04636 0.03263,-0.08597 0.01887,-0.03959 0.03194,-0.08323 0.02908,-0.09694 -0.003,-0.01379 6.18e-4,-0.03033 0.0076,-0.0369 0.007,-0.0066 0.02477,-0.07392 0.03939,-0.149685 0.01463,-0.07577 0.03028,-0.141162 0.03476,-0.14536 0.0045,-0.004 0.02306,-0.07325 0.0413,-0.15346 0.0533,-0.234498 0.05924,-0.266289 0.05455,-0.2917 -0.0025,-0.01329 0.0014,-0.02944 0.0083,-0.03597 0.0068,-0.0065 0.0209,-0.08084 0.03093,-0.165181 0.01797,-0.150788 0.02889,-0.232666 0.04364,-0.326757 l 0.0075,-0.04758 -0.102596,0.0062 c -0.05642,0.0035 -0.10838,0.0036 -0.115404,5.52e-4 -0.0072,-0.0031 -0.01788,-8.02e-4 -0.02416,0.0049 -0.0063,0.0057 -0.09727,0.01464 -0.202232,0.01949 -0.104978,0.0049 -0.19712,0.01471 -0.204774,0.02193 -0.0076,0.0072 -0.01911,0.0074 -0.02553,6.85e-4 -0.0063,-0.0068 -0.02437,-0.007 -0.03992,-5.12e-4 -0.01544,0.0065 -0.111193,0.02118 -0.212457,0.03247 -0.101282,0.01125 -0.199811,0.02825 -0.219006,0.03752 -0.01922,0.0092 -0.0395,0.01217 -0.0452,0.0061 -0.0057,-0.0061 -0.0358,-0.0029 -0.06691,0.0069 -0.03113,0.0098 -0.09866,0.02724 -0.150066,0.03887 -0.147817,0.03293 -0.796809,0.229988 -0.900598,0.273642 -0.05171,0.02187 -0.103545,0.04037 -0.115136,0.04149 -0.01161,0.001 -0.112723,0.04508 -0.224705,0.09791 -0.11198,0.05285 -0.218819,0.101537 -0.237419,0.108231 -0.01854,0.0068 -0.07734,0.03627 -0.13055,0.06574 -0.05322,0.02945 -0.110747,0.05736 -0.127897,0.06199 -0.01721,0.0046 -0.09139,0.0475 -0.165029,0.0953 -0.07364,0.04779 -0.13804,0.08248 -0.143094,0.07705 -0.005,-0.0053 -0.02091,8.69e-4 -0.03517,0.01428 -0.03887,0.0363 -0.251835,0.168324 -0.285539,0.177026 -0.01612,0.0042 -0.148876,0.101449 -0.29489,0.216202 -0.146017,0.114726 -0.272876,0.206879 -0.281918,0.204761 -0.02657,-0.0062 -1.079108,0.973476 -1.092446,1.016887 -0.0067,0.02144 -0.154217,0.18527 -0.360407,0.399946 -0.192059,0.199974 -0.349653,0.37343 -0.350204,0.385479 -6.33e-4,0.01193 -0.02209,0.04159 -0.04783,0.06563 -0.07252,0.06773 -0.363481,0.408124 -0.380041,0.444617 -0.0083,0.01795 -0.07671,0.107681 -0.152413,0.199504 -0.07572,0.09182 -0.136557,0.173568 -0.135197,0.181669 0.0014,0.0081 -0.05113,0.08249 -0.116591,0.165314 -0.06547,0.08285 -0.120662,0.159769 -0.122615,0.170975 -0.002,0.01141 -0.04326,0.07576 -0.09181,0.143506 -0.04852,0.06774 -0.08995,0.132203 -0.09201,0.143271 -0.0021,0.01104 -0.04158,0.07214 -0.0878,0.1357 -0.04619,0.06358 -0.09162,0.132508 -0.100949,0.153159 -0.0093,0.02072 -0.05676,0.09501 -0.105412,0.165188 -0.04867,0.07021 -0.09768,0.147682 -0.108954,0.172176 l -0.02052,0.04454 0.280234,0.300096 0.280233,0.300097 z m 0.439297,0.470434 0.156812,-0.146433 -0.197122,-0.211091 -0.197122,-0.211091 -0.156814,0.146432 -0.156813,0.146432 0.197123,0.21109 0.197122,0.211091 z m -0.137848,-0.752013 0.10857,-0.101358 0.23655,0.253308 0.236551,0.253309 -0.108561,0.101368 -0.108561,0.101378 0.240855,0.257936 c 0.240259,0.25729 0.240944,0.257887 0.274801,0.239858 0.01867,-0.0099 0.05129,-0.0342 0.07254,-0.05387 0.02126,-0.01968 0.04735,-0.03342 0.05801,-0.03057 0.01064,0.0028 0.03898,-0.0137 0.06294,-0.03679 0.02396,-0.02316 0.132046,-0.105101 0.240202,-0.182121 0.108145,-0.07701 0.276026,-0.201942 0.37305,-0.277587 0.09699,-0.07569 0.194608,-0.150695 0.21687,-0.166757 0.03796,-0.02741 0.650906,-0.49857 0.80843,-0.621422 0.217716,-0.169795 0.478996,-0.390808 0.883111,-0.746994 0.624858,-0.550731 0.847227,-0.760078 0.878769,-0.827279 0.01405,-0.02984 0.03216,-0.06885 0.04042,-0.08662 0.0084,-0.01775 0.01681,-0.03578 0.01906,-0.04004 0.0022,-0.0041 0.01108,-0.02218 0.0192,-0.0399 0.05296,-0.112706 0.24993,-0.512802 0.327389,-0.66502 0.02628,-0.05164 0.053,-0.110098 0.05936,-0.129875 0.0064,-0.01975 0.02988,-0.06533 0.05226,-0.101213 0.02235,-0.03594 0.03962,-0.07183 0.03831,-0.07987 -0.0012,-0.008 0.0089,-0.03517 0.02273,-0.0603 l 0.02512,-0.04564 -0.577509,-0.62467 -0.577504,-0.624669 -0.04455,0.0078 c -0.02449,0.0042 -0.08625,0.02799 -0.137284,0.05269 -0.05101,0.02469 -0.09883,0.04394 -0.106274,0.04262 -0.0074,-0.0013 -0.03771,0.0097 -0.06725,0.0247 -0.0694,0.03505 -0.444395,0.191436 -0.511941,0.213493 -0.06468,0.02104 -0.332882,0.130268 -0.384529,0.156473 -0.02104,0.01081 -0.06022,0.02314 -0.08699,0.02775 -0.04345,0.0075 -0.100922,0.05758 -0.532141,0.464307 -0.265862,0.250834 -0.486095,0.466582 -0.489323,0.479523 -0.003,0.0128 -0.179146,0.207952 -0.390938,0.433336 -0.557293,0.593126 -1.041374,1.127674 -1.061698,1.172371 -0.006,0.01339 -0.132691,0.166225 -0.281306,0.339564 -0.255028,0.297473 -0.306522,0.35889 -0.387252,0.461875 l -0.03349,0.04273 0.241672,0.258792 0.241672,0.258795 z m 0.421207,0.487325 0.09047,-0.0845 -0.197122,-0.211092 -0.197122,-0.211092 -0.09047,0.0845 -0.09047,0.0845 0.197122,0.211092 0.197122,0.211091 z m 2.411441,-4.45342 c 0.02148,-0.0041 0.06701,-0.02109 0.101267,-0.03761 0.03421,-0.01654 0.07859,-0.03438 0.0986,-0.0395 0.02003,-0.0052 0.07999,-0.02796 0.133349,-0.05065 0.195764,-0.08315 0.239753,-0.100271 0.307229,-0.119643 0.03791,-0.01073 0.07456,-0.02513 0.08155,-0.03162 0.0068,-0.0065 0.04528,-0.02298 0.08509,-0.03679 0.163594,-0.05635 0.286033,-0.111994 0.289114,-0.131451 0.002,-0.01141 0.05906,-0.09088 0.127253,-0.176679 0.19649,-0.247259 0.192783,-0.254061 -0.0712,-0.130748 -0.122754,0.05736 -0.245325,0.118662 -0.272369,0.136241 -0.02706,0.01766 -0.06434,0.03749 -0.0829,0.04422 -0.01854,0.0068 -0.101176,0.0581 -0.183571,0.114168 -0.08242,0.05607 -0.175374,0.111411 -0.206596,0.123017 -0.06295,0.02327 -0.368134,0.242948 -0.451207,0.324632 -0.02918,0.0287 -0.03989,0.04496 -0.02382,0.0361 0.016,-0.0088 0.04676,-0.01953 0.06821,-0.0237 z m 1.935184,1.829525 c 0.05695,-0.07201 0.111935,-0.143725 0.122183,-0.159339 0.01033,-0.0156 0.07143,-0.09701 0.135995,-0.180799 0.06456,-0.08382 0.135058,-0.18552 0.156686,-0.226 0.02162,-0.0405 0.04665,-0.08048 0.05563,-0.08886 0.01722,-0.01615 0.13593,-0.208853 0.229498,-0.37272 0.03062,-0.05364 0.07358,-0.124629 0.09545,-0.157756 0.02188,-0.03309 0.036,-0.06422 0.03145,-0.0691 -0.0045,-0.0048 -0.109576,0.05883 -0.233367,0.141562 l -0.225088,0.150445 -0.05116,0.103871 c -0.127795,0.25947 -0.177463,0.364323 -0.210895,0.445156 -0.01976,0.04782 -0.04334,0.09386 -0.05236,0.102294 -0.0089,0.0085 -0.01714,0.0249 -0.01798,0.03663 -8.66e-4,0.01178 -0.01696,0.04833 -0.03577,0.08137 -0.01885,0.03302 -0.05084,0.09971 -0.07115,0.148189 -0.02031,0.04847 -0.04196,0.09283 -0.04814,0.0986 -0.0061,0.0057 -0.02097,0.03738 -0.03292,0.07025 -0.02165,0.05961 -0.02161,0.0597 0.01342,0.03342 0.01923,-0.01456 0.08163,-0.08529 0.138605,-0.157276 z m 0.356071,-1.015258 c 0.01825,-0.01027 0.08241,-0.0532 0.142704,-0.09503 0.06026,-0.0419 0.124767,-0.08161 0.143338,-0.08833 0.01855,-0.0068 0.06955,-0.03645 0.113357,-0.06601 l 0.07962,-0.05377 -0.65125,-0.697412 c -0.51609,-0.552666 -0.653347,-0.693425 -0.661461,-0.678108 -0.01049,0.01995 -0.227077,0.295241 -0.252918,0.321598 -0.0081,0.0083 -0.01024,0.01931 -0.0053,0.02482 0.005,0.0053 -0.0029,0.02157 -0.01758,0.03556 -0.01477,0.01409 -0.03612,0.04023 -0.04737,0.05808 l -0.02032,0.03265 0.571931,0.612469 0.571929,0.612467 z"
       id="path3455-5-7"
       inkscape:transform-center-x="-0.11466991"
       inkscape:transform-center-y="-0.0602482" /><text
       xml:space="preserve"
       style="font-style:normal;font-weight:normal;font-size:1.65749px;line-height:1.25;font-family:sans-serif;fill:#000000;fill-opacity:1;stroke:none;stroke-width:0.0414373"
       x="86.249931"
       y="28.237783"
       id="text4307"><tspan
         sodipodi:role="line"
         id="tspan4305"
         style="stroke-width:0.0414373"
         x="86.249931"
         y="28.237783">RCOG<tspan
   style="font-size:1.07737px;baseline-shift:sub;stroke-width:0.0414373"
   id="tspan5883">t</tspan></tspan></text><text
       xml:space="preserve"
       style="font-style:normal;font-weight:normal;font-size:10.5833px;line-height:1.25;font-family:sans-serif;fill:#000000;fill-opacity:1;stroke:none;stroke-width:0.264583"
       x="60.859138"
       y="26.689365"
       id="text7037"><tspan
         sodipodi:role="line"
         id="tspan7035"
         x="60.859138"
         y="26.689365"
         style="stroke-width:0.264583" /></text><text
       xml:space="preserve"
       style="font-style:normal;font-weight:normal;font-size:2.10233px;line-height:1.25;font-family:sans-serif;fill:#000000;fill-opacity:1;stroke:none;stroke-width:0.0525584"
       x="96.40506"
       y="26.52721"
       id="text4307-8"><tspan
         sodipodi:role="line"
         id="tspan4305-69"
         style="stroke-width:0.0525584"
         x="96.40506"
         y="26.52721">m<tspan
   style="font-size:1.36652px;baseline-shift:sub;stroke-width:0.0525584"
   id="tspan5883-7">t+1</tspan></tspan></text><text
       xml:space="preserve"
       style="font-style:normal;font-weight:normal;font-size:2.10233px;line-height:1.25;font-family:sans-serif;fill:#000000;fill-opacity:1;stroke:none;stroke-width:0.0525584"
       x="75.359566"
       y="23.736393"
       id="text4307-8-9"><tspan
         sodipodi:role="line"
         id="tspan4305-69-5"
         style="stroke-width:0.0525584"
         x="75.359566"
         y="23.736393">m<tspan
   style="font-size:1.36652px;baseline-shift:sub;stroke-width:0.0525584"
   id="tspan5883-7-2">t</tspan></tspan></text></g></svg>
